<svg width="76" height="76" viewBox="0 0 76 76" fill="none" xmlns="http://www.w3.org/2000/svg">
<path d="M22.4545 10C25.4485 10 28.2985 10.6394 31.0045 11.9183C33.7106 13.1971 36.0424 14.9991 38 17.3243C39.9576 14.9991 42.2894 13.1971 44.9955 11.9183C47.7015 10.6394 50.5515 10 53.5455 10C58.9576 10 63.4773 11.8311 67.1045 15.4932C70.7318 19.1553 72.5455 23.7184 72.5455 29.1826C72.5455 29.4732 72.5311 29.7639 72.5023 30.0545C72.4735 30.3451 72.4591 30.6358 72.4591 30.9264H65.55C65.6076 30.6358 65.6364 30.3451 65.6364 30.0545V29.1826C65.6364 25.6948 64.4848 22.7884 62.1818 20.4632C59.8788 18.1381 57 16.9755 53.5455 16.9755C50.8394 16.9755 48.3348 17.7457 46.0318 19.2861C43.7288 20.8265 42.1455 22.7884 41.2818 25.1717H34.7182C33.8545 22.7884 32.2712 20.8265 29.9682 19.2861C27.6652 17.7457 25.1606 16.9755 22.4545 16.9755C19 16.9755 16.1212 18.1381 13.8182 20.4632C11.5152 22.7884 10.3636 25.6948 10.3636 29.1826V30.0545C10.3636 30.3451 10.3924 30.6358 10.45 30.9264H3.54091C3.54091 30.6358 3.52652 30.3451 3.49773 30.0545C3.46894 29.7639 3.45455 29.4732 3.45455 29.1826C3.45455 23.7184 5.26818 19.1553 8.89545 15.4932C12.5227 11.8311 17.0424 10 22.4545 10ZM14.8545 51.8529H24.5273C26.3697 53.6549 28.3848 55.6022 30.5727 57.6948C32.7606 59.7875 35.2364 62.0836 38 64.5831C40.7636 62.0836 43.2394 59.7875 45.4273 57.6948C47.6152 55.6022 49.6303 53.6549 51.4727 51.8529H61.2318C59.0439 54.2943 56.453 56.9391 53.4591 59.7875C50.4652 62.6358 46.9818 65.8619 43.0091 69.4659L38 74L32.9909 69.4659C29.0182 65.8619 25.5492 62.6358 22.5841 59.7875C19.6189 56.9391 17.0424 54.2943 14.8545 51.8529ZM34.7182 55.3406C35.4667 55.3406 36.1144 55.1226 36.6614 54.6866C37.2083 54.2507 37.597 53.6839 37.8273 52.9864L42.4909 38.7738L45.5136 43.3079C45.8015 43.7729 46.2045 44.1508 46.7227 44.4414C47.2409 44.7321 47.7879 44.8774 48.3636 44.8774H76V37.9019H50.35L44.3909 29.0082C44.0455 28.485 43.5992 28.0926 43.0523 27.8311C42.5053 27.5695 41.9152 27.4387 41.2818 27.4387C40.5333 27.4387 39.8856 27.6567 39.3386 28.0926C38.7917 28.5286 38.403 29.0954 38.1727 29.7929L33.5091 43.9183L30.5727 39.4714C30.2848 39.0064 29.8818 38.6285 29.3636 38.3379C28.8455 38.0472 28.2985 37.9019 27.7227 37.9019H0V44.8774H25.65L31.6091 53.7711C31.9545 54.2943 32.4008 54.6866 32.9477 54.9482C33.4947 55.2098 34.0848 55.3406 34.7182 55.3406Z" fill="white"/>
</svg>
