<svg width="64" height="64" viewBox="0 0 64 64" fill="none" xmlns="http://www.w3.org/2000/svg">
<path d="M38.4 28.8889C37.6296 28.1185 37.2444 27.1704 37.2444 26.0444C37.2444 24.9185 37.6296 23.9704 38.4 23.2C39.1704 22.4296 40.1185 22.0444 41.2444 22.0444C42.3704 22.0444 43.3185 22.4296 44.0889 23.2C44.8593 23.9704 45.2444 24.9185 45.2444 26.0444C45.2444 27.1704 44.8593 28.1185 44.0889 28.8889C43.3185 29.6593 42.3704 30.0444 41.2444 30.0444C40.1185 30.0444 39.1704 29.6593 38.4 28.8889ZM19.8222 28.8889C19.0519 28.1185 18.6667 27.1704 18.6667 26.0444C18.6667 24.9185 19.0519 23.9704 19.8222 23.2C20.5926 22.4296 21.5407 22.0444 22.6667 22.0444C23.7926 22.0444 24.7407 22.4296 25.5111 23.2C26.2815 23.9704 26.6667 24.9185 26.6667 26.0444C26.6667 27.1704 26.2815 28.1185 25.5111 28.8889C24.7407 29.6593 23.7926 30.0444 22.6667 30.0444C21.5407 30.0444 20.5926 29.6593 19.8222 28.8889ZM22.9333 46.5778C20.2074 44.8 18.0741 42.4593 16.5333 39.5556H47.4667C45.9259 42.4593 43.7926 44.8 41.0667 46.5778C38.3407 48.3556 35.3185 49.2444 32 49.2444C28.6815 49.2444 25.6593 48.3556 22.9333 46.5778ZM19.6 61.4667C15.7185 59.7778 12.3259 57.4815 9.42222 54.5778C6.51852 51.6741 4.22222 48.2815 2.53333 44.4C0.844444 40.5185 0 36.3852 0 32C0 27.6148 0.844444 23.4815 2.53333 19.6C4.22222 15.7185 6.51852 12.3259 9.42222 9.42222C12.3259 6.51852 15.7185 4.22222 19.6 2.53333C23.4815 0.844444 27.6148 0 32 0C36.3852 0 40.5185 0.844444 44.4 2.53333C48.2815 4.22222 51.6741 6.51852 54.5778 9.42222C57.4815 12.3259 59.7778 15.7185 61.4667 19.6C63.1556 23.4815 64 27.6148 64 32C64 36.3852 63.1556 40.5185 61.4667 44.4C59.7778 48.2815 57.4815 51.6741 54.5778 54.5778C51.6741 57.4815 48.2815 59.7778 44.4 61.4667C40.5185 63.1556 36.3852 64 32 64C27.6148 64 23.4815 63.1556 19.6 61.4667ZM50.8 50.8889C56.0444 45.7037 58.6667 39.4667 58.6667 32.1778C58.6667 24.8889 56.0889 18.5185 50.9333 13.0667C45.7778 7.61481 39.4074 4.88889 31.8222 4.88889H30.2222C29.8074 4.88889 29.2741 4.91852 28.6222 4.97778C28.5037 5.45185 28.4 6.01481 28.3111 6.66667C28.2222 7.31852 28.1778 7.88148 28.1778 8.35556C28.1778 9.83704 28.6667 11.0667 29.6444 12.0444C30.6222 13.0222 31.8519 13.5111 33.3333 13.5111C34.0444 13.5111 34.637 13.4667 35.1111 13.3778C35.5852 13.2889 36.0296 13.2444 36.4444 13.2444C37.037 13.2444 37.5407 13.3926 37.9556 13.6889C38.3704 13.9852 38.5778 14.4296 38.5778 15.0222C38.5778 15.9704 38.1333 16.6963 37.2444 17.2C36.3556 17.7037 35.0519 17.9556 33.3333 17.9556C30.6074 17.9556 28.3259 17.037 26.4889 15.2C24.6519 13.363 23.7333 11.0815 23.7333 8.35556C23.7333 8.05926 23.7481 7.67407 23.7778 7.2C23.8074 6.72593 23.8815 6.34074 24 6.04444C18.6074 8 14.1481 11.2593 10.6222 15.8222C7.0963 20.3852 5.33333 25.7185 5.33333 31.8222C5.33333 39.1111 7.95556 45.4074 13.2 50.7111C18.4444 56.0148 24.7111 58.6667 32 58.6667C39.2889 58.6667 45.5556 56.0741 50.8 50.8889Z" fill="white"/>
</svg>
