<svg width="64" height="64" viewBox="0 0 64 64" fill="none" xmlns="http://www.w3.org/2000/svg">
<path d="M8.99048 60.96C7.06032 58.9333 6.09524 56.48 6.09524 53.6V26.32C4.87619 25.0933 3.55556 23.7733 2.13333 22.36C0.711111 20.9467 0 19.2533 0 17.28C0 16.0533 0.419048 15 1.25714 14.12C2.09524 13.24 3.09841 12.8 4.26667 12.8C5.13016 12.8 5.89206 13.04 6.55238 13.52C7.2127 14 7.82222 14.56 8.38095 15.2C8.93968 14.56 9.56191 14 10.2476 13.52C10.9333 13.04 11.6825 12.8 12.4952 12.8C13.6635 12.8 14.6667 13.24 15.5048 14.12C16.3429 15 16.7619 16.0533 16.7619 17.28C16.7619 19.2533 16.0508 20.9467 14.6286 22.36C13.2063 23.7733 11.8857 25.0933 10.6667 26.32V53.6C10.6667 55.1467 11.1873 56.4667 12.2286 57.56C13.2698 58.6533 14.527 59.2 16 59.2C17.473 59.2 18.7302 58.6533 19.7714 57.56C20.8127 56.4667 21.3333 55.1467 21.3333 53.6V15.6C21.3333 11.28 22.781 7.6 25.6762 4.56C28.5714 1.52 32.0762 0 36.1905 0C40.3048 0 43.8095 1.52 46.7048 4.56C49.6 7.6 51.0476 11.28 51.0476 15.6V16.16C54.7048 16.7467 57.7778 18.5333 60.2667 21.52C62.7556 24.5067 64 28 64 32V48C64 52.4267 62.5143 56.2 59.5429 59.32C56.5714 62.44 52.9778 64 48.7619 64C44.546 64 40.9524 62.44 37.981 59.32C35.0095 56.2 33.5238 52.4267 33.5238 48V32C33.5238 28 34.7683 24.5067 37.2571 21.52C39.746 18.5333 42.819 16.7467 46.4762 16.16V15.6C46.4762 12.56 45.4857 10 43.5048 7.92C41.5238 5.84 39.0857 4.8 36.1905 4.8C33.2952 4.8 30.8571 5.84 28.8762 7.92C26.8952 10 25.9048 12.56 25.9048 15.6V53.6C25.9048 56.48 24.9397 58.9333 23.0095 60.96C21.0794 62.9867 18.7429 64 16 64C13.2571 64 10.9206 62.9867 8.99048 60.96ZM56.3048 55.92C58.3873 53.7333 59.4286 51.0933 59.4286 48V32C59.4286 28.9067 58.3873 26.2667 56.3048 24.08C54.2222 21.8933 51.7079 20.8 48.7619 20.8C45.8159 20.8 43.3016 21.8933 41.219 24.08C39.1365 26.2667 38.0952 28.9067 38.0952 32V48C38.0952 51.0933 39.1365 53.7333 41.219 55.92C43.3016 58.1067 45.8159 59.2 48.7619 59.2C51.7079 59.2 54.2222 58.1067 56.3048 55.92ZM44.4571 43.48C43.2635 44.7333 42.6667 46.24 42.6667 48C42.6667 49.76 43.2635 51.2667 44.4571 52.52C45.6508 53.7733 47.0857 54.4 48.7619 54.4C50.4381 54.4 51.873 53.7733 53.0667 52.52C54.2603 51.2667 54.8571 49.76 54.8571 48C54.8571 46.24 54.2603 44.7333 53.0667 43.48C51.873 42.2267 50.4381 41.6 48.7619 41.6C47.0857 41.6 45.6508 42.2267 44.4571 43.48Z" fill="white"/>
</svg>
