<svg width="96" height="91" viewBox="0 0 96 91" fill="none" xmlns="http://www.w3.org/2000/svg">
<path d="M13.4857 86.6775C10.5905 83.7958 9.14286 80.3075 9.14286 76.2125V37.4238C7.31429 35.6796 5.33333 33.8027 3.2 31.7931C1.06667 29.7835 0 27.3758 0 24.57C0 22.8258 0.628571 21.3281 1.88571 20.0769C3.14286 18.8256 4.64762 18.2 6.4 18.2C7.69524 18.2 8.8381 18.5413 9.82857 19.2238C10.819 19.9062 11.7333 20.7025 12.5714 21.6125C13.4095 20.7025 14.3429 19.9062 15.3714 19.2238C16.4 18.5413 17.5238 18.2 18.7429 18.2C20.4952 18.2 22 18.8256 23.2571 20.0769C24.5143 21.3281 25.1429 22.8258 25.1429 24.57C25.1429 27.3758 24.0762 29.7835 21.9429 31.7931C19.8095 33.8027 17.8286 35.6796 16 37.4238V76.2125C16 78.4117 16.781 80.2885 18.3429 81.8431C19.9048 83.3977 21.7905 84.175 24 84.175C26.2095 84.175 28.0952 83.3977 29.6571 81.8431C31.219 80.2885 32 78.4117 32 76.2125V22.1813C32 16.0387 34.1714 10.8063 38.5143 6.48375C42.8571 2.16125 48.1143 0 54.2857 0C60.4571 0 65.7143 2.16125 70.0571 6.48375C74.4 10.8063 76.5714 16.0387 76.5714 22.1813V22.9775C82.0571 23.8117 86.6667 26.3521 90.4 30.5988C94.1333 34.8454 96 39.8125 96 45.5V68.25C96 74.5442 93.7714 79.9094 89.3143 84.3456C84.8571 88.7819 79.4667 91 73.1429 91C66.819 91 61.4286 88.7819 56.9714 84.3456C52.5143 79.9094 50.2857 74.5442 50.2857 68.25V45.5C50.2857 39.8125 52.1524 34.8454 55.8857 30.5988C59.619 26.3521 64.2286 23.8117 69.7143 22.9775V22.1813C69.7143 17.8588 68.2286 14.2188 65.2571 11.2613C62.2857 8.30375 58.6286 6.825 54.2857 6.825C49.9429 6.825 46.2857 8.30375 43.3143 11.2613C40.3429 14.2188 38.8571 17.8588 38.8571 22.1813V76.2125C38.8571 80.3075 37.4095 83.7958 34.5143 86.6775C31.619 89.5592 28.1143 91 24 91C19.8857 91 16.381 89.5592 13.4857 86.6775ZM84.4571 79.5113C87.581 76.4021 89.1429 72.6483 89.1429 68.25V45.5C89.1429 41.1017 87.581 37.3479 84.4571 34.2388C81.3333 31.1296 77.5619 29.575 73.1429 29.575C68.7238 29.575 64.9524 31.1296 61.8286 34.2388C58.7048 37.3479 57.1429 41.1017 57.1429 45.5V68.25C57.1429 72.6483 58.7048 76.4021 61.8286 79.5113C64.9524 82.6204 68.7238 84.175 73.1429 84.175C77.5619 84.175 81.3333 82.6204 84.4571 79.5113ZM66.6857 61.8231C64.8952 63.6052 64 65.7475 64 68.25C64 70.7525 64.8952 72.8948 66.6857 74.6769C68.4762 76.459 70.6286 77.35 73.1429 77.35C75.6571 77.35 77.8095 76.459 79.6 74.6769C81.3905 72.8948 82.2857 70.7525 82.2857 68.25C82.2857 65.7475 81.3905 63.6052 79.6 61.8231C77.8095 60.041 75.6571 59.15 73.1429 59.15C70.6286 59.15 68.4762 60.041 66.6857 61.8231Z" fill="#1076AC"/>
</svg>
