<svg width="64" height="64" viewBox="0 0 64 64" fill="none" xmlns="http://www.w3.org/2000/svg">
<path d="M8.81653 55.0544C6.0616 52.2295 3.90329 48.9652 2.3416 45.2614C0.780532 41.5576 0 37.7597 0 33.8676C0 29.2849 0.805812 25.0947 2.41744 21.2967C4.02906 17.4988 6.4465 13.999 9.66975 10.7974C11.8818 8.60029 14.631 6.74841 17.9175 5.24179C21.2039 3.73516 25.075 2.55812 29.5306 1.71064C33.9863 0.863168 39.0266 0.329573 44.6515 0.109858C50.2764 -0.109858 56.5333 0 63.4222 0.439431C63.9278 7.21923 64.1016 13.4183 63.9436 19.0368C63.7856 24.6552 63.28 29.7008 62.4267 34.1736C61.5735 38.6464 60.3727 42.5561 58.8243 45.9027C57.2759 49.2499 55.364 52.0494 53.0888 54.3011C49.8656 57.5027 46.3895 59.9196 42.6606 61.5517C38.9318 63.1839 34.9501 64 30.7157 64C26.3548 64 22.3573 63.2624 18.7233 61.7872C15.0892 60.3119 11.787 58.0677 8.81653 55.0544ZM18.5811 55.0544C20.1611 56.1216 21.9939 56.9377 24.0796 57.5027C26.1652 58.0677 28.3747 58.3502 30.7081 58.3502C34.0628 58.3502 37.3202 57.6596 40.4802 56.2786C43.6403 54.8975 46.5159 52.8887 49.1071 50.2521C50.8136 48.5571 52.2672 46.3443 53.468 43.6135C54.6688 40.8828 55.6484 37.6498 56.4069 33.9147C57.1653 30.1795 57.6709 25.9578 57.9237 21.2496C58.1765 16.5414 58.1765 11.3624 57.9237 5.7126C51.9828 5.58705 46.6581 5.66552 41.9496 5.94801C37.2412 6.23051 33.0857 6.74841 29.4832 7.50172C25.8808 8.25503 22.7839 9.21236 20.1927 10.3737C17.6015 11.5351 15.4842 12.9632 13.841 14.6582C11.1866 17.3575 9.16414 20.2138 7.77372 23.2271C6.3833 26.2403 5.68809 29.3163 5.68809 32.4551C5.68809 35.4684 6.3359 38.6229 7.63152 41.9186C8.92714 45.2143 10.523 47.8666 12.419 49.8754C15.7686 43.7234 19.7819 38.1991 24.4588 33.3026C29.1356 28.4061 34.0969 24.5454 39.3426 21.7205C33.8441 26.4286 29.3884 31.5292 25.9756 37.0221C22.5627 42.515 20.0979 48.5257 18.5811 55.0544Z" fill="white"/>
</svg>
