<svg width="96" height="96" viewBox="0 0 96 96" fill="none" xmlns="http://www.w3.org/2000/svg">
<path d="M70.2 46.6L57.5 33.8L61.7 29.6L70.2 38.1L87.2 21.1L91.4 25.4L70.2 46.6ZM25.2 43.7C22.4 40.9 21 37.3 21 32.9C21 28.5 22.4 24.9 25.2 22.1C28 19.3 31.6 17.9 36 17.9C40.4 17.9 44 19.3 46.8 22.1C49.6 24.9 51 28.5 51 32.9C51 37.3 49.6 40.9 46.8 43.7C44 46.5 40.4 47.9 36 47.9C31.6 47.9 28 46.5 25.2 43.7ZM4 80V70.6C4 68.2667 4.58333 66.15 5.75 64.25C6.91667 62.35 8.6 60.9334 10.8 60C15.8 57.8 20.25 56.25 24.15 55.35C28.05 54.45 32 54 36 54C40 54 43.9333 54.45 47.8 55.35C51.6667 56.25 56.1 57.8 61.1 60C63.3 61 65 62.4334 66.2 64.3C67.4 66.1667 68 68.2667 68 70.6V80H4ZM10 74H62V70.6C62 69.5334 61.7 68.5167 61.1 67.55C60.5 66.5834 59.7 65.8667 58.7 65.4C53.9667 63.2 49.9667 61.75 46.7 61.05C43.4333 60.35 39.8667 60 36 60C32.1333 60 28.55 60.35 25.25 61.05C21.95 61.75 17.9333 63.2 13.2 65.4C12.2 65.8667 11.4167 66.5834 10.85 67.55C10.2833 68.5167 10 69.5334 10 70.6V74ZM42.45 39.35C44.15 37.65 45 35.5 45 32.9C45 30.3 44.15 28.15 42.45 26.45C40.75 24.75 38.6 23.9 36 23.9C33.4 23.9 31.25 24.75 29.55 26.45C27.85 28.15 27 30.3 27 32.9C27 35.5 27.85 37.65 29.55 39.35C31.25 41.05 33.4 41.9 36 41.9C38.6 41.9 40.75 41.05 42.45 39.35Z" fill="#1076AC"/>
</svg>
