<svg width="297" height="32" viewBox="0 0 297 32" fill="none" xmlns="http://www.w3.org/2000/svg">
<path d="M-0.000214837 16.38C-0.000214837 13.496 0.643785 10.92 1.93179 8.652C3.24779 6.356 5.02579 4.578 7.26579 3.318C9.53379 2.03 12.0678 1.386 14.8678 1.386C18.1438 1.386 21.0138 2.226 23.4778 3.906C25.9418 5.586 27.6638 7.91 28.6438 10.878H21.8818C21.2098 9.478 20.2578 8.428 19.0258 7.728C17.8218 7.028 16.4218 6.678 14.8258 6.678C13.1178 6.678 11.5918 7.084 10.2478 7.896C8.93179 8.68 7.89579 9.8 7.13979 11.256C6.41179 12.712 6.04779 14.42 6.04779 16.38C6.04779 18.312 6.41179 20.02 7.13979 21.504C7.89579 22.96 8.93179 24.094 10.2478 24.906C11.5918 25.69 13.1178 26.082 14.8258 26.082C16.4218 26.082 17.8218 25.732 19.0258 25.032C20.2578 24.304 21.2098 23.24 21.8818 21.84H28.6438C27.6638 24.836 25.9418 27.174 23.4778 28.854C21.0418 30.506 18.1718 31.332 14.8678 31.332C12.0678 31.332 9.53379 30.702 7.26579 29.442C5.02579 28.154 3.24779 26.376 1.93179 24.108C0.643785 21.84 -0.000214837 19.264 -0.000214837 16.38ZM43.9981 31.458C41.7581 31.458 39.7421 30.968 37.9501 29.988C36.1581 28.98 34.7441 27.566 33.7081 25.746C32.7001 23.926 32.1961 21.826 32.1961 19.446C32.1961 17.066 32.7141 14.966 33.7501 13.146C34.8141 11.326 36.2561 9.926 38.0761 8.946C39.8961 7.938 41.9261 7.434 44.1661 7.434C46.4061 7.434 48.4361 7.938 50.2561 8.946C52.0761 9.926 53.5041 11.326 54.5401 13.146C55.6041 14.966 56.1361 17.066 56.1361 19.446C56.1361 21.826 55.5901 23.926 54.4981 25.746C53.4341 27.566 51.9781 28.98 50.1301 29.988C48.3101 30.968 46.2661 31.458 43.9981 31.458ZM43.9981 26.334C45.0621 26.334 46.0561 26.082 46.9801 25.578C47.9321 25.046 48.6881 24.262 49.2481 23.226C49.8081 22.19 50.0881 20.93 50.0881 19.446C50.0881 17.234 49.5001 15.54 48.3241 14.364C47.1761 13.16 45.7621 12.558 44.0821 12.558C42.4021 12.558 40.9881 13.16 39.8401 14.364C38.7201 15.54 38.1601 17.234 38.1601 19.446C38.1601 21.658 38.7061 23.366 39.7981 24.57C40.9181 25.746 42.3181 26.334 43.9981 26.334ZM73.3433 7.476C76.1153 7.476 78.3553 8.358 80.0633 10.122C81.7713 11.858 82.6253 14.294 82.6253 17.43V31.08H76.7453V18.228C76.7453 16.38 76.2833 14.966 75.3593 13.986C74.4353 12.978 73.1753 12.474 71.5793 12.474C69.9553 12.474 68.6673 12.978 67.7153 13.986C66.7913 14.966 66.3293 16.38 66.3293 18.228V31.08H60.4493V7.812H66.3293V10.71C67.1133 9.702 68.1073 8.918 69.3113 8.358C70.5433 7.77 71.8873 7.476 73.3433 7.476ZM97.1208 31.458C95.2168 31.458 93.5088 31.122 91.9968 30.45C90.4848 29.75 89.2808 28.812 88.3848 27.636C87.5168 26.46 87.0408 25.158 86.9568 23.73H92.8788C92.9908 24.626 93.4248 25.368 94.1808 25.956C94.9648 26.544 95.9308 26.838 97.0788 26.838C98.1988 26.838 99.0668 26.614 99.6828 26.166C100.327 25.718 100.649 25.144 100.649 24.444C100.649 23.688 100.257 23.128 99.4728 22.764C98.7168 22.372 97.4988 21.952 95.8188 21.504C94.0828 21.084 92.6548 20.65 91.5348 20.202C90.4428 19.754 89.4908 19.068 88.6788 18.144C87.8948 17.22 87.5028 15.974 87.5028 14.406C87.5028 13.118 87.8668 11.942 88.5948 10.878C89.3508 9.814 90.4148 8.974 91.7868 8.358C93.1868 7.742 94.8248 7.434 96.7008 7.434C99.4728 7.434 101.685 8.134 103.337 9.534C104.989 10.906 105.899 12.768 106.067 15.12H100.439C100.355 14.196 99.9628 13.468 99.2628 12.936C98.5908 12.376 97.6808 12.096 96.5328 12.096C95.4688 12.096 94.6428 12.292 94.0548 12.684C93.4948 13.076 93.2148 13.622 93.2148 14.322C93.2148 15.106 93.6068 15.708 94.3908 16.128C95.1748 16.52 96.3928 16.926 98.0448 17.346C99.7248 17.766 101.111 18.2 102.203 18.648C103.295 19.096 104.233 19.796 105.017 20.748C105.829 21.672 106.249 22.904 106.277 24.444C106.277 25.788 105.899 26.992 105.143 28.056C104.415 29.12 103.351 29.96 101.951 30.576C100.579 31.164 98.9688 31.458 97.1208 31.458ZM133.07 7.812V31.08H127.148V28.14C126.392 29.148 125.398 29.946 124.166 30.534C122.962 31.094 121.646 31.374 120.218 31.374C118.398 31.374 116.788 30.996 115.388 30.24C113.988 29.456 112.882 28.322 112.07 26.838C111.286 25.326 110.894 23.534 110.894 21.462V7.812H116.774V20.622C116.774 22.47 117.236 23.898 118.16 24.906C119.084 25.886 120.344 26.376 121.94 26.376C123.564 26.376 124.838 25.886 125.762 24.906C126.686 23.898 127.148 22.47 127.148 20.622V7.812H133.07ZM144.751 1.43051e-06V31.08H138.871V1.43051e-06H144.751ZM157.407 12.642V23.898C157.407 24.682 157.589 25.256 157.953 25.62C158.345 25.956 158.989 26.124 159.885 26.124H162.615V31.08H158.919C153.963 31.08 151.485 28.672 151.485 23.856V12.642H148.713V7.812H151.485V2.058H157.407V7.812H162.615V12.642H157.407ZM165.332 19.362C165.332 17.01 165.794 14.924 166.718 13.104C167.67 11.284 168.944 9.884 170.54 8.904C172.164 7.924 173.97 7.434 175.958 7.434C177.694 7.434 179.206 7.784 180.494 8.484C181.81 9.184 182.86 10.066 183.644 11.13V7.812H189.566V31.08H183.644V27.678C182.888 28.77 181.838 29.68 180.494 30.408C179.178 31.108 177.652 31.458 175.916 31.458C173.956 31.458 172.164 30.954 170.54 29.946C168.944 28.938 167.67 27.524 166.718 25.704C165.794 23.856 165.332 21.742 165.332 19.362ZM183.644 19.446C183.644 18.018 183.364 16.8 182.804 15.792C182.244 14.756 181.488 13.972 180.536 13.44C179.584 12.88 178.562 12.6 177.47 12.6C176.378 12.6 175.37 12.866 174.446 13.398C173.522 13.93 172.766 14.714 172.178 15.75C171.618 16.758 171.338 17.962 171.338 19.362C171.338 20.762 171.618 21.994 172.178 23.058C172.766 24.094 173.522 24.892 174.446 25.452C175.398 26.012 176.406 26.292 177.47 26.292C178.562 26.292 179.584 26.026 180.536 25.494C181.488 24.934 182.244 24.15 182.804 23.142C183.364 22.106 183.644 20.874 183.644 19.446ZM197.913 31.374C196.849 31.374 195.967 31.052 195.267 30.408C194.595 29.736 194.259 28.91 194.259 27.93C194.259 26.95 194.595 26.138 195.267 25.494C195.967 24.822 196.849 24.486 197.913 24.486C198.949 24.486 199.803 24.822 200.475 25.494C201.147 26.138 201.483 26.95 201.483 27.93C201.483 28.91 201.147 29.736 200.475 30.408C199.803 31.052 198.949 31.374 197.913 31.374ZM204.707 19.446C204.707 17.038 205.197 14.938 206.177 13.146C207.157 11.326 208.515 9.926 210.251 8.946C211.987 7.938 213.975 7.434 216.215 7.434C219.099 7.434 221.479 8.162 223.355 9.618C225.259 11.046 226.533 13.062 227.177 15.666H220.835C220.499 14.658 219.925 13.874 219.113 13.314C218.329 12.726 217.349 12.432 216.173 12.432C214.493 12.432 213.163 13.048 212.183 14.28C211.203 15.484 210.713 17.206 210.713 19.446C210.713 21.658 211.203 23.38 212.183 24.612C213.163 25.816 214.493 26.418 216.173 26.418C218.553 26.418 220.107 25.354 220.835 23.226H227.177C226.533 25.746 225.259 27.748 223.355 29.232C221.451 30.716 219.071 31.458 216.215 31.458C213.975 31.458 211.987 30.968 210.251 29.988C208.515 28.98 207.157 27.58 206.177 25.788C205.197 23.968 204.707 21.854 204.707 19.446ZM241.816 31.458C239.576 31.458 237.56 30.968 235.768 29.988C233.976 28.98 232.562 27.566 231.526 25.746C230.518 23.926 230.014 21.826 230.014 19.446C230.014 17.066 230.532 14.966 231.568 13.146C232.632 11.326 234.074 9.926 235.894 8.946C237.714 7.938 239.744 7.434 241.984 7.434C244.224 7.434 246.254 7.938 248.074 8.946C249.894 9.926 251.322 11.326 252.358 13.146C253.422 14.966 253.954 17.066 253.954 19.446C253.954 21.826 253.408 23.926 252.316 25.746C251.252 27.566 249.796 28.98 247.948 29.988C246.128 30.968 244.084 31.458 241.816 31.458ZM241.816 26.334C242.88 26.334 243.874 26.082 244.798 25.578C245.75 25.046 246.506 24.262 247.066 23.226C247.626 22.19 247.906 20.93 247.906 19.446C247.906 17.234 247.318 15.54 246.142 14.364C244.994 13.16 243.58 12.558 241.9 12.558C240.22 12.558 238.806 13.16 237.658 14.364C236.538 15.54 235.978 17.234 235.978 19.446C235.978 21.658 236.524 23.366 237.616 24.57C238.736 25.746 240.136 26.334 241.816 26.334ZM287.164 7.476C290.02 7.476 292.316 8.358 294.052 10.122C295.816 11.858 296.698 14.294 296.698 17.43V31.08H290.818V18.228C290.818 16.408 290.356 15.022 289.432 14.07C288.508 13.09 287.248 12.6 285.652 12.6C284.056 12.6 282.782 13.09 281.83 14.07C280.906 15.022 280.444 16.408 280.444 18.228V31.08H274.564V18.228C274.564 16.408 274.102 15.022 273.178 14.07C272.254 13.09 270.994 12.6 269.398 12.6C267.774 12.6 266.486 13.09 265.534 14.07C264.61 15.022 264.148 16.408 264.148 18.228V31.08H258.268V7.812H264.148V10.626C264.904 9.646 265.87 8.876 267.046 8.316C268.25 7.756 269.566 7.476 270.994 7.476C272.814 7.476 274.438 7.868 275.866 8.652C277.294 9.408 278.4 10.5 279.184 11.928C279.94 10.584 281.032 9.506 282.46 8.694C283.916 7.882 285.484 7.476 287.164 7.476Z" fill="white"/>
</svg>
